HIERARCHY
ROOT Hips
{
	OFFSET 0.000000 0.000000 0.000000
	CHANNELS 6 Xposition Yposition Zposition Xrotation Yrotation Zrotation
	JOINT LeftUpLeg_virtual
	{
		OFFSET 0.000000 0.000000 0.000000
		CHANNELS 3 Xrotation Yrotation Zrotation
		JOINT LeftUpLeg
		{
			OFFSET 11.394100 -6.187798 -0.413800
			CHANNELS 3 Xrotation Yrotation Zrotation
			JOINT LeftLeg
			{
				OFFSET 0.430247 -32.302673 3.732800
				CHANNELS 3 Xrotation Yrotation Zrotation
				JOINT LeftFoot
				{
					OFFSET -0.430247 -48.264931 -6.423300
					CHANNELS 3 Xrotation Yrotation Zrotation
					JOINT LeftToeBase
					{
						OFFSET 4.230900 -16.068199 23.438400
						CHANNELS 3 Xrotation Yrotation Zrotation
						JOINT LeftToe_End
						{
							OFFSET 4.510700 0.695400 19.974600
							CHANNELS 3 Xrotation Yrotation Zrotation
							End Site
							{
								OFFSET 0 0 0
							}
						}
					}
				}
			}
		}
	}
	JOINT RightUpLeg_virtual
	{
		OFFSET 0.000000 0.000000 0.000000
		CHANNELS 3 Xrotation Yrotation Zrotation
		JOINT RightUpLeg
		{
			OFFSET -11.333700 -6.187798 -0.413800
			CHANNELS 3 Xrotation Yrotation Zrotation
			JOINT RightLeg
			{
				OFFSET -0.430392 -32.302628 3.733000
				CHANNELS 3 Xrotation Yrotation Zrotation
				JOINT RightFoot
				{
					OFFSET 0.430392 -48.264973 -6.423500
					CHANNELS 3 Xrotation Yrotation Zrotation
					JOINT RightToeBase
					{
						OFFSET -4.230900 -16.068199 23.438400
						CHANNELS 3 Xrotation Yrotation Zrotation
						JOINT RightToe_End
						{
							OFFSET -4.510700 0.695400 19.974600
							CHANNELS 3 Xrotation Yrotation Zrotation
							End Site
							{
								OFFSET 0 0 0
							}
						}
					}
				}
			}
		}
	}
	JOINT Spine_virtual
	{
		OFFSET 0.000000 0.000000 0.000000
		CHANNELS 3 Xrotation Yrotation Zrotation
		JOINT Spine
		{
			OFFSET -0.002400 12.777504 0.315300
			CHANNELS 3 Xrotation Yrotation Zrotation
			JOINT Spine1
			{
				OFFSET -0.002067 5.816869 0.032633
				CHANNELS 3 Xrotation Yrotation Zrotation
				JOINT Spine1_split
				{
					OFFSET -0.002067 5.816869 0.032633
					CHANNELS 3 Xrotation Yrotation Zrotation
					JOINT Spine2
					{
						OFFSET -0.002067 5.816869 0.032633
						CHANNELS 3 Xrotation Yrotation Zrotation
						JOINT Neck_virtual
						{
							OFFSET 0.000000 0.000000 0.000000
							CHANNELS 3 Xrotation Yrotation Zrotation
							JOINT Neck
							{
								OFFSET -0.003700 21.199493 -0.826900
								CHANNELS 3 Xrotation Yrotation Zrotation
								JOINT Head
								{
									OFFSET 0.000000 20.442200 4.834800
									CHANNELS 3 Xrotation Yrotation Zrotation
									JOINT HeadTop_End
									{
										OFFSET 0.000000 34.668396 4.968400
										CHANNELS 3 Xrotation Yrotation Zrotation
										End Site
										{
											OFFSET 0 0 0
										}
									}
								}
							}
						}
						JOINT LeftShoulder_virtual
						{
							OFFSET 0.000000 0.000000 0.000000
							CHANNELS 3 Xrotation Yrotation Zrotation
							JOINT LeftShoulder
							{
								OFFSET 3.288150 8.794197 -1.372250
								CHANNELS 3 Xrotation Yrotation Zrotation
								JOINT LeftShoulder_split
								{
									OFFSET 3.288150 8.794197 -1.372250
									CHANNELS 3 Xrotation Yrotation Zrotation
									JOINT LeftArm
									{
										OFFSET 11.953299 -2.279007 -0.146200
										CHANNELS 3 Xrotation Yrotation Zrotation
										JOINT LeftForeArm
										{
											OFFSET 18.448900 0.000000 0.000000
											CHANNELS 3 Xrotation Yrotation Zrotation
											JOINT LeftHand
											{
												OFFSET 29.527798 0.000000 0.000000
												CHANNELS 3 Xrotation Yrotation Zrotation
												End Site
												{
													OFFSET 0 0 0
												}
											}
										}
									}
								}
							}
						}
						JOINT RightShoulder_virtual
						{
							OFFSET 0.000000 0.000000 0.000000
							CHANNELS 3 Xrotation Yrotation Zrotation
							JOINT RightShoulder
							{
								OFFSET -3.249400 8.794197 -1.372250
								CHANNELS 3 Xrotation Yrotation Zrotation
								JOINT RightShoulder_split
								{
									OFFSET -3.249400 8.794197 -1.372250
									CHANNELS 3 Xrotation Yrotation Zrotation
									JOINT RightArm
									{
										OFFSET -11.953299 -2.279007 -0.146200
										CHANNELS 3 Xrotation Yrotation Zrotation
										JOINT RightForeArm
										{
											OFFSET -18.448900 0.000000 0.000000
											CHANNELS 3 Xrotation Yrotation Zrotation
											JOINT RightHand
											{
												OFFSET -29.527802 0.000000 0.000000
												CHANNELS 3 Xrotation Yrotation Zrotation
												End Site
												{
													OFFSET 0 0 0
												}
											}
										}
									}
								}
							}
						}
					}
				}
			}
		}
	}
}
MOTION
Frames: 11
Frame Time: 0.03333333
-0.731151 102.761078 -0.916077 0.000000 0.000000 0.000000 -3.471305 2.084011 2.550207 -3.852621 8.026485 5.456832 14.226306 5.655339 0.465764 -8.472921 1.089032 -4.373306 1.840048 0.368180 -1.565970 0.000000 0.000000 0.000000 -3.609761 2.553697 2.564846 -6.427912 -10.049957 -9.899581 12.510228 -6.588932 -3.372742 -2.419935 -1.170971 7.153101 -5.193359 -1.085909 -1.711584 0.000000 0.000000 0.000000 -2.623883 2.493911 2.155430 3.434446 -0.557764 -0.002540 1.448396 -0.452718 0.747929 0.907602 0.095019 0.150729 0.000000 0.000000 0.000000 0.917492 -0.071903 0.195306 0.250006 0.624442 -1.013438 -4.494752 -5.019872 -1.670944 0.000000 0.000000 0.000000 0.975289 -0.137893 0.376698 0.950633 -2.181998 -16.028180 -0.123417 -0.381108 -0.562182 4.554273 -8.389271 -37.341245 0.845156 -64.964402 0.843912 0.000000 0.000000 0.000000 1.038485 -0.022768 0.442587 1.163464 4.889558 20.396864 1.454825 1.305722 -1.533026 -2.834569 5.684889 57.642336 0.392139 18.688513 0.421458 0.000000 0.000000 0.000000 
-0.767349 102.759109 -0.875294 0.000000 0.000000 0.000000 -3.535193 2.076221 2.589982 -3.812318 8.173455 5.443690 14.172591 5.616001 0.499198 -8.383660 1.087777 -4.346522 1.852632 0.367787 -1.561716 0.000000 0.000000 0.000000 -3.635661 2.540300 2.594585 -6.391726 -10.010586 -9.914907 12.604294 -6.567881 -3.359328 -2.438259 -1.161890 7.228388 -5.174024 -1.084287 -1.744169 0.000000 0.000000 0.000000 -2.686411 2.562661 2.175853 3.432508 -0.566044 -0.008076 1.430105 -0.437970 0.773671 0.962416 0.022309 0.182931 0.000000 0.000000 0.000000 0.949185 -0.066540 0.235739 0.217645 0.713391 -1.146703 -4.348703 -5.037430 -1.637546 0.000000 0.000000 0.000000 0.926394 -0.117753 0.377274 0.985898 -2.151063 -16.011473 -0.223663 -0.595191 -0.562277 4.656140 -8.400069 -37.343489 0.855607 -64.905901 0.855642 0.000000 0.000000 0.000000 1.046005 -0.004835 0.473460 1.203126 4.697214 20.272044 1.087179 1.133061 -1.463113 -2.919686 5.947105 57.309413 0.460586 18.196934 0.475509 0.000000 0.000000 0.000000 
-0.784852 102.759979 -0.838078 0.000000 0.000000 0.000000 -3.581214 2.226037 2.657634 -3.747445 8.306844 5.367521 14.019908 5.570516 0.545675 -8.262994 1.073282 -4.245128 1.858555 0.368810 -1.562617 0.000000 0.000000 0.000000 -3.678099 2.663263 2.656165 -6.276159 -9.974307 -9.940103 12.718383 -6.613077 -3.344648 -2.493089 -1.205068 7.316365 -5.143926 -1.091118 -1.744526 0.000000 0.000000 0.000000 -2.756268 2.716961 2.220777 3.399785 -0.571430 -0.019524 1.403492 -0.427911 0.786971 0.945810 0.010615 0.210856 0.000000 0.000000 0.000000 0.959516 -0.069450 0.264603 0.231106 0.899464 -1.247496 -4.022531 -4.939419 -1.568280 0.000000 0.000000 0.000000 0.891595 -0.099107 0.362366 1.033027 -2.089009 -15.953415 -0.274367 -0.772066 -0.620874 4.732666 -8.386093 -37.382974 0.898655 -64.869510 0.930493 0.000000 0.000000 0.000000 1.056792 0.007145 0.487191 1.278796 4.535689 19.907860 0.778201 1.072970 -1.368492 -3.125513 6.149171 57.206413 0.516546 17.637247 0.508825 0.000000 0.000000 0.000000 
-0.777162 102.756226 -0.802002 0.000000 0.000000 0.000000 -3.619362 2.504664 2.735939 -3.679882 8.408613 5.241196 13.826442 5.503849 0.601037 -8.141877 1.047620 -4.087981 1.864943 0.370973 -1.570965 0.000000 0.000000 0.000000 -3.732879 2.906828 2.734376 -6.090927 -9.947629 -9.971902 12.820551 -6.723264 -3.332368 -2.582778 -1.286890 7.416215 -5.120168 -1.099879 -1.724881 0.000000 0.000000 0.000000 -2.833001 2.924607 2.280243 3.343169 -0.570497 -0.027819 1.368296 -0.422390 0.786710 0.882205 0.052989 0.215086 0.000000 0.000000 0.000000 0.943108 -0.079833 0.282594 0.287262 1.175297 -1.313931 -3.555097 -4.744999 -1.462540 0.000000 0.000000 0.000000 0.865142 -0.086501 0.338384 1.084903 -2.011689 -15.861948 -0.308992 -0.880482 -0.686002 4.761878 -8.345950 -37.454538 0.963442 -64.853862 1.051828 0.000000 0.000000 0.000000 1.067916 0.014160 0.483735 1.378732 4.411770 19.339643 0.574526 1.068596 -1.284289 -3.350945 6.271219 57.340627 0.552198 17.207403 0.512137 0.000000 0.000000 0.000000 
-0.752405 102.741905 -0.777096 0.000000 0.000000 0.000000 -3.655951 2.887083 2.813909 -3.638055 8.465744 5.083590 13.648818 5.403330 0.660985 -8.050665 1.012363 -3.900950 1.879959 0.375508 -1.590694 0.000000 0.000000 0.000000 -3.793930 3.249485 2.814197 -5.868163 -9.933920 -10.007279 12.902576 -6.886181 -3.319349 -2.704105 -1.376118 7.533600 -5.108847 -1.104751 -1.696276 0.000000 0.000000 0.000000 -2.905669 3.170538 2.344372 3.269139 -0.558019 -0.022928 1.327490 -0.421944 0.773123 0.842234 0.096056 0.204887 0.000000 0.000000 0.000000 0.900332 -0.093706 0.290076 0.366765 1.533288 -1.359593 -3.010008 -4.519286 -1.317957 0.000000 0.000000 0.000000 0.848922 -0.083698 0.312184 1.136229 -1.927874 -15.740553 -0.385114 -0.933306 -0.760638 4.741495 -8.294417 -37.552653 1.029367 -64.857222 1.194005 0.000000 0.000000 0.000000 1.081165 0.015129 0.464104 1.498038 4.328176 18.601209 0.394272 1.034325 -1.218566 -3.410709 6.281284 57.664050 0.568821 17.269437 0.484312 0.000000 0.000000 0.000000 
-0.721099 102.710976 -0.760601 0.000000 0.000000 0.000000 -3.698569 3.338712 2.883004 -3.638763 8.470056 4.917467 13.517342 5.263488 0.718928 -8.002199 0.968967 -3.714306 1.893405 0.382956 -1.618786 0.000000 0.000000 0.000000 -3.871196 3.658501 2.889004 -5.628919 -9.945380 -10.048219 12.956284 -7.081920 -3.305234 -2.851884 -1.437629 7.673194 -5.105058 -1.100909 -1.664851 0.000000 0.000000 0.000000 -2.972947 3.456717 2.413463 3.190379 -0.530113 -0.000120 1.285711 -0.426115 0.750437 0.832864 0.152534 0.203262 0.000000 0.000000 0.000000 0.835544 -0.107438 0.287599 0.450311 1.951193 -1.393526 -2.454894 -4.320302 -1.138102 0.000000 0.000000 0.000000 0.841458 -0.086840 0.290167 1.181128 -1.852923 -15.593740 -0.465923 -0.956590 -0.826602 4.692509 -8.244122 -37.675091 1.083122 -64.888614 1.334694 0.000000 0.000000 0.000000 1.089092 0.009835 0.433635 1.636536 4.267030 17.725885 0.256288 0.958412 -1.152794 -3.140456 6.220661 58.141876 0.577918 18.201208 0.427822 0.000000 0.000000 0.000000 
-0.682329 102.664871 -0.746944 0.000000 0.000000 0.000000 -3.746113 3.854585 2.947841 -3.687813 8.423864 4.748471 13.431512 5.096858 0.766417 -7.990309 0.917918 -3.540343 1.882877 0.393073 -1.641820 0.000000 0.000000 0.000000 -3.954411 4.121717 2.954632 -5.387780 -10.009743 -10.097694 12.983155 -7.300036 -3.292157 -3.016780 -1.455613 7.835013 -5.099034 -1.089231 -1.638120 0.000000 0.000000 0.000000 -3.032990 3.778738 2.489673 3.114211 -0.479722 0.043951 1.242726 -0.431976 0.720594 0.833857 0.188320 0.207195 0.000000 0.000000 0.000000 0.756963 -0.115168 0.274800 0.526566 2.401922 -1.428051 -1.966453 -4.193072 -0.931191 0.000000 0.000000 0.000000 0.842242 -0.093624 0.274408 1.221674 -1.787654 -15.440138 -0.517418 -0.964316 -0.865108 4.641451 -8.184725 -37.827360 1.124024 -64.956738 1.457749 0.000000 0.000000 0.000000 1.087545 -0.000843 0.392846 1.792573 4.228323 16.745814 0.180812 0.941027 -1.105663 -2.475060 6.132605 58.703133 0.583014 20.293619 0.355829 0.000000 0.000000 0.000000 
-0.646551 102.612312 -0.739204 0.000000 0.000000 0.000000 -3.785202 4.407460 3.015467 -3.774649 8.334077 4.581437 13.383068 4.909736 0.799237 -7.976210 0.858000 -3.383965 1.833513 0.406046 -1.653258 0.000000 0.000000 0.000000 -4.036646 4.633161 3.021208 -5.155712 -10.146177 -10.162747 12.980054 -7.533732 -3.278898 -3.187448 -1.421712 8.014331 -5.096383 -1.072626 -1.617985 0.000000 0.000000 0.000000 -3.076991 4.155015 2.576298 3.048919 -0.402503 0.104509 1.199061 -0.432476 0.685883 0.837425 0.177099 0.241954 0.000000 0.000000 0.000000 0.679782 -0.114354 0.250502 0.593427 2.865330 -1.478740 -1.608586 -4.196735 -0.711865 0.000000 0.000000 0.000000 0.855488 -0.101441 0.263313 1.255933 -1.733360 -15.295186 -0.519407 -0.923644 -0.878670 4.599849 -8.098346 -38.019179 1.160859 -65.068016 1.561097 0.000000 0.000000 0.000000 1.076093 -0.015278 0.346071 1.963162 4.216141 15.707671 0.067331 1.012681 -1.050410 -1.381571 6.107246 59.314660 0.599950 23.558699 0.278924 0.000000 0.000000 0.000000 
-0.615809 102.568474 -0.748192 0.000000 0.000000 0.000000 -3.800734 4.985157 3.089797 -3.898753 8.210815 4.411997 13.360376 4.717837 0.818324 -7.917068 0.798231 -3.236245 1.765462 0.420327 -1.653987 0.000000 0.000000 0.000000 -4.091886 5.185810 3.096243 -4.945775 -10.371711 -10.254449 12.929018 -7.775175 -3.268082 -3.344649 -1.338959 8.217901 -5.123758 -1.052040 -1.605267 0.000000 0.000000 0.000000 -3.089085 4.606004 2.676792 3.003885 -0.296603 0.181019 1.153227 -0.421759 0.647420 0.839779 0.097777 0.252372 0.000000 0.000000 0.000000 0.617668 -0.102993 0.217124 0.655070 3.322007 -1.538101 -1.393145 -4.364263 -0.495945 0.000000 0.000000 0.000000 0.876632 -0.103775 0.254328 1.280675 -1.705698 -15.171819 -0.455534 -0.838192 -0.863771 4.549078 -7.991419 -38.252976 1.203048 -65.238128 1.646037 0.000000 0.000000 0.000000 1.059650 -0.023122 0.300335 2.132695 4.256156 14.664700 -0.057076 1.216678 -1.002394 0.036469 6.212515 59.897877 0.620265 27.738904 0.207555 0.000000 0.000000 0.000000 
-0.592440 102.543831 -0.780117 0.000000 0.000000 0.000000 -3.773343 5.601888 3.176667 -4.081757 8.066032 4.227359 13.343433 4.534322 0.829959 -7.798744 0.747356 -3.074873 1.701580 0.433668 -1.644818 0.000000 0.000000 0.000000 -4.096678 5.779557 3.183403 -4.775206 -10.687523 -10.373842 12.831827 -8.023523 -3.257612 -3.485808 -1.226539 8.434099 -5.168800 -1.030200 -1.592820 0.000000 0.000000 0.000000 -3.055326 5.136766 2.792626 2.984190 -0.160932 0.278509 1.107634 -0.396553 0.607485 0.838275 0.001543 0.260855 0.000000 0.000000 0.000000 0.577055 -0.077171 0.182745 0.708037 3.756939 -1.597059 -1.287454 -4.697993 -0.306634 0.000000 0.000000 0.000000 0.903885 -0.094434 0.244737 1.295783 -1.713060 -15.088793 -0.352251 -0.708316 -0.863707 4.481813 -7.888943 -38.507862 1.254890 -65.458354 1.717250 0.000000 0.000000 0.000000 1.053064 -0.015013 0.259600 2.287342 4.404262 13.661830 -0.221436 1.436274 -0.919030 1.610924 6.485804 60.314416 0.611906 32.472092 0.161672 0.000000 0.000000 0.000000 
-0.578061 102.543953 -0.838634 0.000000 0.000000 0.000000 -3.693540 6.262567 3.279356 -4.345716 7.907615 4.018920 13.319741 4.356133 0.838605 -7.626728 0.708933 -2.903601 1.656436 0.443062 -1.632465 0.000000 0.000000 0.000000 -4.041215 6.403742 3.286188 -4.669765 -11.090320 -10.520864 12.700458 -8.279291 -3.245177 -3.627180 -1.104125 8.624755 -5.152325 -1.008041 -1.564143 0.000000 0.000000 0.000000 -2.973090 5.761683 2.919960 2.997513 0.000412 0.396151 1.065294 -0.357496 0.568663 0.852172 -0.111129 0.282102 0.000000 0.000000 0.000000 0.565367 -0.038361 0.156249 0.756042 4.158178 -1.650851 -1.256284 -5.172256 -0.164403 0.000000 0.000000 0.000000 0.932196 -0.070528 0.236472 1.302092 -1.763092 -15.041318 -0.229255 -0.571365 -0.835875 4.396537 -7.820770 -38.761112 1.311012 -65.709084 1.770342 0.000000 0.000000 0.000000 1.061874 0.011657 0.231908 2.417901 4.678831 12.708916 -0.359925 1.624145 -0.853000 3.081921 6.920393 60.434299 0.548989 37.436670 0.144965 0.000000 0.000000 0.000000 
